<?xml version="1.0" standalone="no"?>
<!DOCTYPE svg PUBLIC "-//W3C//DTD SVG 20010904//EN"
 "http://www.w3.org/TR/2001/REC-SVG-20010904/DTD/svg10.dtd">
<svg version="1.0" xmlns="http://www.w3.org/2000/svg"
 width="52.000000pt" height="96.000000pt" viewBox="0 0 52.000000 96.000000"
 preserveAspectRatio="xMidYMid meet">

<g transform="translate(0.000000,496.000000) scale(0.100000,-0.100000)"
fill="#000000" stroke="none">
<path d="M3895 4520 c-33 -4 -69 -10 -80 -14 -91 -36 -170 -83 -190 -114 -19
-30 -37 -91 -29 -103 4 -8 3 -9 -4 -5 -28 17 -5 -176 33 -279 20 -57 20 -103
-2 -101 -26 2 -43 -75 -31 -144 12 -72 32 -136 39 -130 3 3 13 -1 21 -8 14
-11 16 -8 20 23 2 19 0 42 -5 51 -17 30 -10 268 9 319 9 22 24 18 24 -5 0 -11
6 -29 13 -40 9 -16 9 -22 0 -28 -13 -8 -33 -55 -33 -77 0 -7 14 -18 30 -24 17
-5 33 -17 36 -25 3 -8 19 -18 36 -21 24 -6 29 -11 24 -28 -3 -12 -6 -25 -6
-29 0 -5 -6 -8 -14 -8 -8 0 -17 -6 -19 -12 -4 -10 -6 -10 -6 0 -1 7 -14 12
-32 12 -20 0 -29 -4 -26 -12 2 -7 -3 -26 -12 -41 -15 -27 -15 -30 19 -95 19
-37 38 -69 43 -70 4 -2 4 -8 1 -14 -4 -6 1 -8 12 -4 14 4 25 -3 39 -24 11 -17
26 -30 33 -30 6 0 12 -5 12 -10 0 -6 -13 -9 -30 -8 -16 1 -30 6 -30 11 0 4 -4
5 -10 2 -5 -3 -10 -42 -10 -86 0 -59 -3 -79 -13 -79 -16 0 -64 -91 -73 -140
-9 -45 -34 -104 -40 -97 -3 3 0 15 6 27 16 30 5 37 -22 14 -12 -10 -18 -13
-14 -6 6 11 4 11 -10 3 -23 -13 -73 -33 -94 -37 -8 -2 -16 -8 -18 -14 -2 -5
-8 -7 -14 -4 -10 7 -48 -29 -48 -46 0 -5 -3 -9 -7 -9 -20 3 -26 -2 -13 -11 13
-8 12 -10 -4 -10 -15 0 -17 -3 -8 -12 6 -6 26 -11 44 -10 29 1 31 -1 16 -12
-10 -7 -18 -16 -18 -20 0 -14 31 -4 59 20 19 16 35 22 43 17 13 -8 18 -9 38
-12 5 0 7 -8 4 -16 -4 -8 -10 -13 -14 -10 -5 3 -12 0 -16 -6 -4 -7 -3 -9 3 -6
6 4 13 -4 15 -18 4 -19 -2 -30 -29 -51 -37 -28 -38 -46 -1 -22 21 14 23 13 34
-6 6 -12 16 -20 23 -18 16 3 44 -25 36 -38 -3 -5 -1 -10 6 -10 8 0 9 -15 5
-53 -4 -29 -3 -64 2 -77 11 -28 -5 -88 -28 -110 -9 -8 -23 -31 -33 -50 -9 -19
-17 -30 -17 -25 0 6 -7 2 -15 -9 -8 -10 -21 -16 -29 -13 -8 3 -16 3 -18 -1 -2
-4 -20 -15 -40 -24 -26 -12 -36 -13 -32 -5 3 10 -5 12 -31 9 -38 -5 -59 -22
-26 -22 12 0 21 -7 21 -16 0 -8 -4 -13 -9 -10 -4 3 -16 -3 -26 -14 -16 -18
-16 -19 22 -23 l38 -4 -37 -1 c-29 -2 -36 -5 -32 -17 4 -8 1 -15 -4 -15 -6 0
-13 8 -15 18 -4 14 -5 14 -6 -3 -1 -17 -3 -18 -11 -5 -6 10 -10 11 -10 3 0 -7
-8 -13 -17 -13 -16 0 -16 2 -3 11 12 8 10 9 -10 5 -14 -3 -32 -6 -40 -7 -10 0
-8 -3 5 -9 19 -8 19 -9 -2 -9 -12 -1 -25 4 -28 9 -8 12 41 33 75 32 16 0 19 1
8 4 -10 3 -18 14 -18 25 0 23 -1 23 -46 4 -27 -11 -36 -11 -39 -2 -11 38 -27
152 -35 250 -5 61 -10 121 -12 132 -3 22 -26 41 -36 30 -4 -3 0 -10 8 -15 8
-6 10 -10 4 -10 -6 0 -19 10 -28 22 -13 18 -16 19 -12 5 4 -11 11 -67 16 -125
6 -59 15 -127 20 -152 12 -57 12 -70 1 -70 -9 0 -47 138 -60 220 -5 30 -9 45
-10 33 0 -12 -5 -25 -11 -28 -6 -4 -10 13 -10 44 l0 51 -267 0 c-159 0 -263
-4 -258 -9 6 -5 19 -11 30 -13 20 -3 20 -11 20 -328 0 -317 0 -325 -20 -328
-11 -2 -24 -8 -30 -13 -12 -12 443 -8 466 4 14 7 15 0 11 -49 -3 -39 -1 -55 6
-50 6 3 13 -2 15 -11 4 -16 6 -15 12 4 10 31 33 38 27 7 -2 -13 -8 -24 -13
-24 -5 0 -9 -7 -9 -16 0 -14 3 -14 15 -4 11 9 15 9 15 1 0 -7 5 -9 10 -6 6 3
14 -3 18 -15 8 -21 10 -20 43 19 l36 40 -2 -46 c-2 -71 32 -153 69 -168 40
-17 45 -8 39 66 -4 41 -2 59 6 59 6 0 11 16 11 36 l0 36 39 -7 c36 -6 40 -4
57 24 10 17 22 31 26 31 4 0 8 9 8 19 0 15 7 19 30 19 17 -1 30 -5 30 -10 0
-4 -4 -8 -8 -8 -5 0 -9 -6 -9 -14 0 -11 6 -12 23 -6 24 9 43 -3 24 -15 -6 -4
-8 -11 -4 -16 3 -6 -5 -8 -20 -5 -15 3 -24 1 -21 -5 13 -21 69 -40 109 -38 23
2 47 -1 54 -5 7 -4 12 -4 13 1 1 4 5 -3 9 -17 8 -25 8 -25 10 5 1 26 3 27 10
10 7 -17 9 -17 9 -2 1 9 5 17 9 17 5 0 14 12 21 26 6 14 16 24 23 22 6 -2 25
8 41 23 22 21 28 34 25 53 -3 14 -1 23 3 20 5 -3 9 0 9 5 0 6 -4 11 -10 11 -5
0 -10 5 -10 11 0 5 4 8 9 5 5 -4 11 0 14 6 2 7 9 -3 15 -22 6 -19 11 -27 11
-17 1 11 9 17 24 17 28 0 43 -11 41 -30 0 -8 -2 -23 -2 -32 -2 -13 -11 -18
-34 -19 l-33 -2 35 -6 c28 -5 36 -3 38 12 2 9 8 15 13 11 6 -3 8 8 5 28 -4 33
-4 33 7 5 6 -15 18 -27 28 -27 9 0 25 -11 35 -25 23 -31 87 -36 103 -7 9 15
10 15 11 -5 0 -12 4 -24 10 -28 5 -3 7 -11 4 -18 -2 -7 1 -21 8 -30 12 -17 16
-17 50 -3 20 9 38 21 40 28 4 11 8 10 20 0 19 -15 31 -2 22 22 -3 9 -2 16 4
16 5 0 13 -7 16 -16 3 -9 15 -14 28 -12 17 2 25 12 29 38 l6 35 2 -31 c0 -17
7 -31 14 -32 26 -4 83 -10 94 -11 6 -1 15 -10 18 -22 6 -17 12 -19 38 -13 30
6 80 43 61 45 -5 1 2 4 16 8 18 5 27 3 32 -8 6 -14 7 -13 7 2 1 22 18 22 23
-1 3 -9 8 7 12 36 4 28 12 50 16 47 13 -8 17 108 4 132 -6 13 -14 20 -17 16
-4 -3 -7 -3 -7 1 0 3 10 11 23 16 17 7 18 9 5 9 -10 1 -18 8 -18 16 0 9 -9 15
-22 15 -21 0 -21 -1 -3 -13 20 -16 13 -37 -13 -37 -16 0 -37 18 -56 49 -7 10
-3 11 13 6 13 -4 21 -2 21 6 0 18 52 59 76 59 18 0 20 5 17 28 -3 15 -7 34
-10 42 -4 8 -6 18 -5 22 1 4 -6 4 -15 1 -26 -10 -63 -53 -63 -74 0 -10 -5 -21
-10 -24 -6 -4 -8 -10 -6 -14 3 -3 -4 -7 -15 -7 -10 0 -19 4 -19 9 0 5 -6 15
-14 23 -12 12 -18 12 -42 -1 -15 -8 -31 -12 -36 -9 -4 3 -8 -4 -8 -15 0 -11
-4 -23 -10 -26 -5 -3 -10 -1 -10 4 0 6 -9 11 -20 11 -11 0 -20 -4 -20 -9 0
-11 35 -21 75 -21 17 0 37 -5 45 -10 10 -7 0 -8 -33 -4 -40 6 -47 4 -42 -8 5
-12 -1 -15 -32 -12 -36 3 -34 2 20 -18 31 -12 57 -28 57 -35 0 -7 -3 -13 -8
-13 -4 0 -6 -20 -4 -44 4 -40 6 -44 34 -48 24 -4 31 0 39 19 5 14 6 29 3 35
-4 6 5 8 22 6 33 -4 46 21 15 29 -12 3 -21 10 -21 15 0 13 87 5 101 -9 15 -15
-11 -72 -40 -87 -25 -13 -27 -13 -28 6 -2 16 1 17 13 8 8 -7 14 -11 15 -9 0 2
2 17 4 33 5 37 15 46 16 15 0 -22 1 -22 8 -4 10 26 -10 40 -26 19 -6 -9 -26
-26 -43 -39 -27 -20 -29 -24 -16 -38 14 -13 12 -16 -13 -27 -16 -6 -45 -9 -65
-6 -20 3 -52 8 -71 11 -23 4 -35 11 -35 22 0 13 -3 13 -15 3 -23 -19 -161 6
-180 33 -8 11 -11 25 -8 30 3 6 1 7 -5 3 -17 -10 -42 35 -42 75 0 25 5 39 17
43 9 4 19 3 22 -1 3 -4 20 -8 36 -8 17 -1 57 -4 90 -7 l60 -6 -67 17 c-82 20
-98 33 -32 26 36 -3 42 -2 24 4 -17 6 -20 9 -7 10 9 1 17 7 17 14 0 9 2 9 8
-1 6 -9 13 0 21 28 13 46 9 60 -20 60 -11 0 -22 7 -26 16 -3 9 -13 14 -24 11
-11 -3 -19 0 -20 6 0 7 -4 2 -9 -10 -5 -13 -15 -23 -23 -23 -7 0 -18 -12 -24
-27 l-11 -28 -1 25 c-1 37 -6 64 -15 78 -4 7 1 23 13 38 13 16 19 37 17 55 -2
16 1 29 5 29 5 0 9 16 9 35 0 19 5 35 10 35 6 0 10 8 10 19 0 19 29 94 30 76
0 -5 9 5 20 23 11 17 25 32 31 32 7 0 18 8 25 18 13 15 15 15 27 1 22 -28 43
-28 70 0 l25 27 -61 45 c-86 63 -87 63 -101 44 -6 -9 -31 -19 -54 -22 -23 -3
-42 -9 -42 -12 0 -4 -9 -7 -20 -7 -11 0 -20 2 -20 4 0 11 120 95 120 84 1 -4
7 11 15 33 8 22 19 41 25 43 5 2 10 12 10 22 0 10 13 43 29 73 19 36 27 64 24
78 -4 15 -2 20 5 15 12 -7 18 8 27 75 6 49 -1 62 -41 71 -21 5 -22 3 -20 -77
1 -101 -19 -139 -75 -141 -34 -2 -84 30 -74 47 7 11 -5 39 -17 39 -5 0 -30
-18 -55 -40 -25 -22 -51 -40 -58 -40 -7 0 -19 20 -26 45 -11 36 -17 44 -31 39
-31 -9 -21 22 28 86 32 43 52 60 68 60 30 0 47 21 43 51 -3 21 -12 26 -63 35
-32 6 -75 20 -94 30 l-35 18 38 14 c43 17 48 38 12 54 -20 9 -23 14 -13 25 9
11 9 16 -1 23 -9 5 4 12 38 19 63 13 78 14 83 2 6 -16 65 -23 71 -8 6 15 -21
77 -34 77 -16 0 -21 -21 -8 -36 11 -14 8 -15 -25 -8 -21 3 -59 12 -85 19 l-46
13 48 1 c56 1 64 20 12 30 -5 2 -19 10 -29 19 -11 9 -16 11 -12 5 4 -8 1 -13
-9 -13 -25 0 -55 19 -55 35 0 16 -20 19 -56 9 -16 -4 -20 -11 -16 -26 3 -14 1
-19 -6 -14 -7 4 -12 12 -12 18 0 16 41 69 50 63 4 -2 18 22 30 54 12 33 28 62
36 65 8 3 14 16 14 28 0 53 11 68 46 68 l33 0 -15 -36 c-8 -20 -13 -43 -10
-50 6 -16 88 -54 115 -54 24 0 60 30 44 36 -28 12 -13 34 22 34 19 0 35 3 35
6 0 19 -24 43 -50 49 -38 8 -38 19 1 35 27 11 29 15 16 28 -10 9 -38 15 -85
16 -56 1 -73 5 -81 19 -9 14 -7 22 14 41 14 13 25 32 25 44 0 11 8 30 18 41
l17 22 58 -25 c32 -15 64 -26 72 -26 8 0 21 -10 29 -22 7 -13 34 -55 60 -95
25 -40 46 -76 45 -80 -1 -4 -1 -10 1 -13 1 -3 4 -16 6 -30 6 -35 19 -44 34
-25 11 13 11 19 -2 32 -13 13 -14 19 -3 42 34 67 37 82 32 120 -3 23 -1 44 4
47 5 3 9 -1 9 -9 0 -7 7 -14 15 -14 20 0 19 20 -4 48 -16 19 -16 25 -5 37 21
20 17 50 -7 57 -12 4 -18 12 -15 21 3 8 -12 25 -39 44 -42 29 -61 49 -32 35 6
-4 4 0 -5 8 -10 8 -15 17 -11 20 3 4 1 7 -5 7 -19 0 -26 3 -40 17 -7 7 -19 13
-25 13 -14 0 -73 71 -69 83 1 4 -1 6 -5 5 -5 0 -16 2 -26 7 -10 4 -57 5 -105
2 -47 -3 -95 -2 -106 2 -12 4 -48 4 -81 1z m95 -460 c0 -5 -13 -10 -30 -10
-16 0 -30 5 -30 10 0 6 14 10 30 10 17 0 30 -4 30 -10z m224 -119 c4 -5 -3 -7
-14 -4 -23 6 -26 13 -6 13 8 0 17 -4 20 -9z m-414 -21 c0 -5 -4 -10 -10 -10
-5 0 -10 5 -10 10 0 6 5 10 10 10 6 0 10 -4 10 -10z m-179 -97 c-9 -16 -10
-16 -11 -1 0 9 3 25 7 35 7 16 8 17 11 1 2 -10 -1 -25 -7 -35z m298 -294 c24
-7 24 -7 -9 -9 -35 -2 -63 0 -68 5 -1 1 0 9 4 18 5 14 10 14 27 5 11 -6 32
-14 46 -19z m-29 -300 c0 -16 -4 -29 -10 -29 -5 0 -10 16 -10 36 0 21 4 33 10
29 6 -3 10 -19 10 -36z m-158 -384 c10 -2 26 -9 35 -15 15 -10 16 -11 1 -6 -9
3 -32 8 -52 11 -19 4 -41 14 -47 21 -10 13 -8 13 17 3 16 -6 37 -12 46 -14z
m378 -76 c0 -20 -67 -122 -107 -164 -60 -62 -74 -86 -61 -102 8 -11 7 -12 -6
-7 -10 4 -16 1 -16 -7 0 -7 -3 -10 -6 -7 -3 3 5 26 17 50 13 23 22 46 21 51
-1 4 4 7 12 7 16 0 66 57 87 98 7 15 20 35 27 44 8 10 12 24 9 33 -4 9 -1 15
8 15 8 0 15 -5 15 -11z m40 7 c0 -3 -4 -8 -10 -11 -5 -3 -10 -1 -10 4 0 6 5
11 10 11 6 0 10 -2 10 -4z m-1201 -171 c8 -34 23 -66 41 -84 28 -31 48 -81 32
-81 -11 0 -34 -158 -26 -172 3 -5 0 -15 -6 -23 -7 -8 -9 -24 -5 -36 5 -16 4
-19 -5 -14 -10 6 -12 0 -7 -25 4 -18 3 -38 -2 -44 -4 -6 -11 -23 -15 -37 -4
-20 -1 -29 12 -34 16 -6 16 -7 -2 -20 -10 -8 -15 -18 -12 -23 4 -7 -37 -10
-111 -9 l-118 2 0 155 0 155 55 3 56 3 21 -51 c13 -30 28 -50 37 -50 14 0 16
16 16 110 0 127 -13 143 -49 60 l-22 -50 -59 0 -60 0 0 153 c0 85 3 157 7 160
3 4 52 7 108 7 l102 0 12 -55z m1001 -146 c-9 -16 -8 -20 2 -18 25 3 39 -1 34
-10 -6 -9 -60 -6 -77 4 -12 8 -12 35 1 35 6 0 10 -8 11 -17 0 -14 3 -13 11 5
6 12 15 22 20 22 5 0 4 -9 -2 -21z m-45 -39 c3 -5 1 -10 -4 -10 -6 0 -11 5
-11 10 0 6 2 10 4 10 3 0 8 -4 11 -10z m58 -10 c16 0 -14 -20 -30 -20 -7 0
-13 7 -13 16 0 11 5 14 16 10 9 -3 21 -6 27 -6z m-68 -30 c3 -5 1 -10 -4 -10
-6 0 -11 5 -11 10 0 6 2 10 4 10 3 0 8 -4 11 -10z m-18 -42 c-3 -8 -6 -5 -6 6
-1 11 2 17 5 13 3 -3 4 -12 1 -19z m86 -12 c14 -21 13 -21 -24 -18 -33 4 -39
8 -39 27 0 18 4 21 25 18 13 -3 30 -15 38 -27z m-33 -35 c0 -18 -18 -21 -30
-6 -10 13 -9 15 9 15 11 0 21 -4 21 -9z m197 -23 c-3 -7 -5 -2 -5 12 0 14 2
19 5 13 2 -7 2 -19 0 -25z m-639 5 c-25 -3 -38 -9 -38 -19 0 -8 -4 -14 -10
-14 -12 0 -12 3 -4 24 4 12 18 16 48 14 l41 -1 -37 -4z m412 -13 c0 -5 9 -10
19 -10 11 0 23 -4 26 -10 4 -6 -7 -9 -27 -7 -22 2 -34 8 -36 20 -2 9 1 17 7
17 6 0 11 -4 11 -10z m247 -52 c-3 -8 -6 -5 -6 6 -1 11 2 17 5 13 3 -3 4 -12
1 -19z m-767 -7 c-5 -11 -15 -23 -20 -26 -6 -3 -10 -13 -10 -21 0 -8 4 -13 9
-10 5 4 7 -4 4 -15 -5 -20 -7 -20 -18 -6 -9 13 -14 14 -25 4 -10 -10 -10 -8
-1 10 21 41 15 55 -20 48 -24 -6 -30 -4 -27 6 5 14 42 26 91 28 24 1 26 -1 17
-18z m33 -1 c-10 -11 -19 -20 -21 -20 -1 0 2 9 8 20 6 11 15 20 20 20 6 0 2
-9 -7 -20z m214 -27 c-3 -10 -5 -2 -5 17 0 19 2 27 5 18 2 -10 2 -26 0 -35z
m610 41 c-3 -3 -12 -4 -19 -1 -8 3 -5 6 6 6 11 1 17 -2 13 -5z m-977 -25 c0
-5 -4 -8 -8 -5 -4 2 -14 1 -22 -5 -10 -6 -11 -9 -2 -9 6 0 12 -9 12 -19 0 -11
6 -21 13 -24 6 -2 8 -8 4 -13 -12 -13 -47 33 -47 62 0 19 5 24 25 24 14 0 25
-5 25 -11z m585 -9 c3 -5 1 -10 -4 -10 -6 0 -11 5 -11 10 0 6 2 10 4 10 3 0 8
-4 11 -10z m705 1 c0 -6 -4 -13 -10 -16 -5 -3 -10 1 -10 9 0 9 5 16 10 16 6 0
10 -4 10 -9z m-650 -17 c0 -2 -9 -4 -20 -4 -11 0 -20 4 -20 9 0 5 9 7 20 4 11
-3 20 -7 20 -9z m-290 -4 c0 -5 -5 -10 -11 -10 -5 0 -7 5 -4 10 3 6 8 10 11
10 2 0 4 -4 4 -10z m-105 -10 c3 -5 -1 -10 -10 -10 -9 0 -13 5 -10 10 3 6 8
10 10 10 2 0 7 -4 10 -10z m355 -24 c-5 -5 -10 -23 -10 -38 0 -21 6 -29 23
-33 13 -4 24 -13 24 -21 0 -17 -18 -18 -36 -1 -11 10 -13 10 -7 0 4 -7 2 -13
-3 -13 -6 0 -11 19 -11 43 0 24 -6 49 -12 56 -11 12 -10 13 6 7 15 -5 17 -2
13 14 -5 18 -3 19 9 9 10 -8 12 -15 4 -23z m-286 -2 c3 -8 2 -12 -4 -9 -6 3
-10 10 -10 16 0 14 7 11 14 -7z m505 -30 c-14 -18 -24 -11 -15 11 3 9 11 13
16 10 8 -5 7 -11 -1 -21z m-589 6 c0 -5 -4 -10 -9 -10 -6 0 -13 5 -16 10 -3 6
1 10 9 10 9 0 16 -4 16 -10z m54 -5 c3 -8 1 -15 -4 -15 -6 0 -10 5 -10 11 0 6
-7 9 -15 5 -8 -3 -15 -1 -15 4 0 16 37 11 44 -5z m-204 -6 c0 -6 -7 -9 -15 -5
-8 3 -19 -2 -24 -12 -9 -15 -10 -14 -11 6 0 17 6 22 25 22 14 0 25 -5 25 -11z
m490 -29 c0 -25 -2 -29 -13 -18 -8 7 -12 20 -9 30 7 29 22 21 22 -12z m261
-30 c-30 -26 -49 -26 -26 0 10 11 25 20 34 20 12 -1 10 -5 -8 -20z m-631 0
c13 -8 13 -10 -2 -10 -9 0 -20 5 -23 10 -8 13 5 13 25 0z"/>
<path d="M4464 3876 c7 -25 15 -49 20 -53 13 -13 -5 71 -19 85 -10 11 -10 5
-1 -32z"/>
<path d="M4410 3813 c0 -10 7 -27 15 -37 19 -25 19 -36 1 -36 -7 0 -16 -9 -19
-20 -6 -23 11 -27 19 -5 4 8 12 15 19 15 31 0 27 48 -7 82 -23 23 -28 23 -28
1z"/>
<path d="M3676 3797 c3 -10 9 -15 12 -12 3 3 0 11 -7 18 -10 9 -11 8 -5 -6z"/>
<path d="M4091 3761 c8 -22 84 -111 87 -101 5 13 -59 102 -77 108 -7 2 -12 0
-10 -7z"/>
<path d="M3985 3720 c-4 -6 8 -10 30 -10 22 0 34 4 30 10 -3 6 -17 10 -30 10
-13 0 -27 -4 -30 -10z"/>
<path d="M4497 2980 c-13 -49 4 -96 19 -55 4 8 9 13 13 11 3 -2 7 7 7 20 2 19
-1 22 -11 14 -10 -9 -14 -6 -17 12 l-4 23 -7 -25z"/>
<path d="M4554 2958 c-4 -6 -3 -8 4 -4 5 3 12 1 14 -6 3 -8 6 -9 11 -1 4 6 0
13 -8 17 -8 3 -17 0 -21 -6z"/>
<path d="M4295 2930 c4 -7 2 -16 -6 -21 -12 -7 -11 -9 1 -9 12 0 13 -2 1 -9
-7 -5 -10 -14 -6 -21 6 -9 9 -9 16 1 12 20 11 57 -3 65 -7 5 -8 3 -3 -6z"/>
<path d="M4628 2869 c31 -34 42 -36 42 -11 0 13 -12 22 -35 29 l-35 11 28 -29z"/>
<path d="M4246 2854 c-8 -20 -4 -25 11 -16 7 4 9 13 4 21 -6 10 -10 9 -15 -5z"/>
<path d="M4740 2835 c0 -20 17 -28 23 -11 3 8 -1 17 -9 20 -8 3 -14 -1 -14 -9z"/>
<path d="M4815 2810 c3 -5 11 -10 16 -10 6 0 7 5 4 10 -3 6 -11 10 -16 10 -6
0 -7 -4 -4 -10z"/>
<path d="M1276 2638 c-13 -29 -74 -178 -137 -332 l-114 -279 -42 -19 c-24 -10
-43 -21 -43 -23 0 -3 41 -5 90 -5 50 0 90 4 90 8 0 4 -16 14 -35 21 -41 14
-41 14 6 118 l28 63 119 0 119 0 29 -71 c47 -119 89 -145 224 -137 l55 3 -29
15 c-27 13 -46 53 -170 352 -83 198 -146 338 -154 338 -7 0 -23 -24 -36 -52z
m19 -304 c25 -59 45 -111 45 -115 0 -5 -47 -9 -105 -9 -58 0 -105 4 -105 9 0
5 9 28 19 52 10 24 34 79 51 123 38 90 31 94 95 -60z"/>
<path d="M6038 2608 c-19 -46 -81 -196 -138 -335 l-104 -251 -38 -13 c-21 -7
-38 -16 -38 -21 0 -4 41 -8 91 -8 93 0 107 9 45 30 l-34 11 33 82 33 82 122 0
122 0 29 -70 c35 -81 52 -103 96 -121 36 -16 173 -19 173 -5 0 5 -10 11 -22
13 -17 2 -30 21 -54 78 -37 86 -141 334 -209 498 -26 61 -53 112 -60 112 -7 0
-28 -37 -47 -82z m28 -266 l52 -127 -105 -3 c-58 -1 -107 -1 -109 1 -4 4 100
257 106 257 3 0 28 -58 56 -128z"/>
<path d="M255 2672 c6 -6 19 -12 30 -14 20 -3 20 -11 20 -328 0 -317 0 -325
-20 -328 -11 -2 -24 -8 -30 -13 -5 -5 50 -9 138 -9 91 0 147 4 147 10 0 6 -9
10 -19 10 -50 0 -51 3 -51 152 l0 139 37 -3 c36 -3 36 -3 90 -123 78 -175 97
-189 238 -183 65 3 68 4 42 16 -21 9 -37 32 -63 89 -68 151 -73 159 -112 180
-20 11 -53 24 -72 29 l-35 8 54 8 c69 11 129 44 159 88 20 29 23 45 20 95 -5
86 -49 136 -144 165 -50 16 -443 26 -429 12z m304 -22 c51 -14 88 -55 102
-112 25 -106 -27 -207 -115 -223 -72 -14 -71 -18 -74 160 -1 87 0 165 2 172 6
15 38 17 85 3z"/>
<path d="M1756 2671 c5 -5 18 -11 29 -13 20 -3 20 -11 20 -328 0 -317 0 -325
-20 -328 -11 -2 -24 -8 -30 -13 -5 -5 48 -9 133 -9 133 0 180 10 112 24 l-30
6 0 140 c0 77 2 140 5 140 3 0 42 -58 88 -128 115 -176 131 -187 272 -180 67
3 69 4 40 16 -23 10 -63 63 -164 218 l-133 204 88 109 c70 86 96 112 126 122
21 7 38 16 38 21 0 4 -40 8 -90 8 -49 0 -90 -3 -90 -7 0 -5 16 -15 36 -23 l36
-15 -116 -142 c-64 -78 -121 -145 -126 -148 -6 -4 -10 53 -10 150 l0 156 30 6
c68 13 21 23 -112 23 -85 0 -138 -4 -132 -9z"/>
<path d="M5125 2664 c44 -105 89 -355 101 -566 l7 -118 46 0 c47 0 48 15 1 22
l-25 3 -3 143 -3 142 33 0 c33 0 34 -2 93 -132 75 -164 84 -172 206 -176 57
-3 89 0 89 6 0 6 -10 12 -22 14 -18 2 -33 26 -74 118 -57 126 -82 154 -152
172 l-46 11 63 13 c79 16 125 47 151 100 24 49 25 82 5 132 -40 95 -109 123
-324 130 -148 5 -154 4 -146 -14z m233 -24 c52 -24 82 -80 82 -155 0 -75 -30
-131 -82 -155 -24 -11 -58 -20 -75 -20 l-33 0 0 175 0 175 33 0 c17 0 51 -9
75 -20z"/>
<path d="M6393 2674 c4 -4 16 -12 28 -18 15 -8 52 -81 125 -246 167 -378 196
-440 209 -440 6 0 67 149 135 334 l123 334 38 12 c22 7 39 17 39 22 0 4 -40 8
-90 8 -49 0 -90 -4 -90 -8 0 -4 16 -14 35 -21 19 -7 35 -17 35 -22 0 -17 -153
-429 -159 -429 -4 0 -33 62 -65 138 -121 280 -133 302 -179 323 -29 13 -65 19
-116 19 -41 0 -71 -3 -68 -6z"/>
<path d="M7190 2671 c0 -5 14 -11 30 -14 l30 -6 0 -321 0 -320 -30 -6 c-68
-14 -21 -24 112 -24 85 0 138 4 133 9 -6 5 -19 11 -30 13 -20 3 -20 11 -20
328 0 317 0 325 20 328 11 2 24 8 30 13 5 5 -48 9 -133 9 -78 0 -142 -4 -142
-9z"/>
<path d="M5016 2595 c-7 -46 -2 -70 15 -60 12 8 12 105 0 105 -5 0 -12 -20
-15 -45z"/>
<path d="M4935 2588 c4 -16 3 -19 -3 -10 -10 14 -26 -5 -51 -62 -10 -24 -14
-27 -22 -15 -7 12 -9 12 -10 -1 -1 -8 -1 -23 0 -32 3 -26 -8 -22 -19 7 -17 45
-39 28 -59 -46 -15 -55 -42 -237 -44 -295 -1 -29 -5 -40 -14 -37 -7 3 -13 10
-13 16 0 6 -2 8 -5 5 -3 -3 4 -22 15 -41 21 -35 22 -84 3 -151 -3 -12 -1 -16
6 -12 8 5 8 0 1 -19 -14 -37 -12 -55 5 -55 27 0 46 93 23 110 -4 3 20 64 52
135 33 72 60 126 60 120 0 -33 34 51 59 147 16 62 36 136 44 165 11 43 12 53
0 57 -7 3 -13 12 -13 21 0 8 -5 15 -11 15 -6 0 -8 -9 -4 -22z m-31 -83 c-4 -8
-8 -15 -10 -15 -2 0 -4 7 -4 15 0 8 4 15 10 15 5 0 7 -7 4 -15z"/>
<path d="M4966 2592 c-3 -5 1 -9 9 -9 8 0 12 4 9 9 -3 4 -7 8 -9 8 -2 0 -6 -4
-9 -8z"/>
<path d="M5026 2468 c-11 -16 -13 -25 -4 -35 8 -9 7 -17 -2 -28 -7 -9 -10 -18
-7 -21 3 -3 1 -20 -4 -37 -6 -22 -5 -33 4 -39 9 -6 7 -12 -8 -24 -11 -8 -20
-20 -21 -27 0 -7 -2 -22 -2 -35 -1 -13 -6 -20 -12 -17 -6 4 -10 -6 -11 -22 0
-15 -7 -44 -15 -63 l-14 -35 4 38 c3 20 0 37 -5 37 -5 0 -3 10 6 23 8 13 17
43 19 66 4 38 3 40 -10 24 -7 -10 -14 -23 -14 -29 0 -13 -51 -117 -61 -124
-17 -12 -65 -186 -60 -222 1 -10 -3 -26 -9 -38 -6 -11 -7 -26 -3 -33 4 -6 6
-19 5 -28 -2 -10 6 -19 20 -23 18 -5 20 -8 9 -15 -17 -11 1 -23 23 -15 9 3 16
1 16 -6 0 -6 4 -9 9 -6 5 3 12 32 15 63 9 75 22 116 56 173 17 29 34 80 44
138 9 51 24 112 32 135 9 23 17 71 19 107 2 36 8 79 14 97 14 47 -6 60 -33 21z"/>
<path d="M3310 2289 c0 -5 5 -7 10 -4 6 3 10 8 10 11 0 2 -4 4 -10 4 -5 0 -10
-5 -10 -11z"/>
<path d="M4400 2239 c0 -6 -4 -8 -9 -5 -12 8 -48 -21 -38 -30 4 -5 11 -3 15 3
4 6 20 13 36 15 34 4 46 23 16 25 -11 1 -20 -3 -20 -8z"/>
<path d="M4400 2066 c0 -33 -20 -44 -37 -21 -7 11 -13 13 -13 7 0 -7 -5 -12
-10 -12 -7 0 -7 6 0 20 6 11 7 20 1 20 -13 0 -22 -27 -15 -45 4 -8 11 -15 16
-15 6 0 5 -6 -2 -15 -8 -9 -9 -15 -2 -15 6 0 14 5 17 10 10 16 35 11 36 -7 0
-11 5 -5 11 12 6 17 15 33 21 36 5 4 5 15 -2 28 -15 27 -21 27 -21 -3z"/>
<path d="M4210 2076 c0 -2 7 -6 15 -10 8 -3 15 -1 15 4 0 6 -7 10 -15 10 -8 0
-15 -2 -15 -4z"/>
<path d="M4420 2009 c0 -5 9 -9 20 -9 11 0 20 2 20 4 0 2 -9 6 -20 9 -11 3
-20 1 -20 -4z"/>
<path d="M3840 1986 c0 -2 9 -6 20 -9 11 -3 20 -1 20 4 0 5 -9 9 -20 9 -11 0
-20 -2 -20 -4z"/>
<path d="M3811 1934 c0 -11 3 -14 6 -6 3 7 2 16 -1 19 -3 4 -6 -2 -5 -13z"/>
<path d="M4695 1783 c-3 -27 -8 -64 -11 -83 -4 -27 -3 -32 7 -23 12 12 27 153
16 153 -3 0 -8 -21 -12 -47z"/>
<path d="M4112 1790 c0 -19 2 -27 5 -17 2 9 2 25 0 35 -3 9 -5 1 -5 -18z"/>
</g>
</svg>
